<?xml version="1.0" encoding="UTF-8" standalone="no"?><!DOCTYPE svg PUBLIC "-//W3C//DTD SVG 1.1//EN" "http://www.w3.org/Graphics/SVG/1.1/DTD/svg11.dtd"><svg width="100%" height="100%" viewBox="0 0 4576 1024" version="1.1" xmlns="http://www.w3.org/2000/svg" xmlns:xlink="http://www.w3.org/1999/xlink" xml:space="preserve" xmlns:serif="http://www.serif.com/" style="fill-rule:evenodd;clip-rule:evenodd;stroke-linejoin:round;stroke-miterlimit:2;"><path d="M962,287c-0,-124.181 -100.819,-225 -225,-225l-450,0c-124.181,0 -225,100.819 -225,225l-0,450c-0,124.181 100.819,225 225,225l450,-0c124.181,-0 225,-100.819 225,-225l-0,-450Zm-50,0l-0,450c-0,96.585 -78.415,175 -175,175l-450,-0c-96.585,-0 -175,-78.415 -175,-175l0,-450c0,-96.585 78.415,-175 175,-175l450,0c96.585,0 175,78.415 175,175Z" style="fill:#1f2937;"/><path d="M169.735,639.592c0,-36.328 4.615,-68.994 13.843,-97.998c9.229,-29.004 22.119,-53.687 38.672,-74.048c16.553,-20.361 36.255,-35.962 59.106,-46.802c22.852,-10.84 48.047,-16.26 75.586,-16.26c16.7,0 32.52,2.271 47.461,6.812c14.942,4.541 28.711,11.206 41.309,19.995c12.598,8.789 23.584,19.556 32.959,32.3c9.375,12.744 16.846,27.319 22.412,43.725l15.82,-94.921l68.555,-0l-42.187,228.955l-0,5.273c-0,50.684 5.639,88.184 16.918,112.5c11.28,24.316 28.638,34.863 52.076,31.641l-0,62.841c-21.387,3.223 -38.965,3.37 -52.735,0.44c-13.769,-2.93 -25.122,-8.423 -34.057,-16.48c-8.936,-8.056 -15.967,-18.53 -21.094,-31.42c-5.127,-12.891 -9.595,-27.686 -13.403,-44.385c-14.649,31.64 -34.571,56.177 -59.766,73.608c-25.195,17.432 -55.664,26.148 -91.406,26.148c-28.711,-0 -53.687,-5.42 -74.927,-16.26c-21.24,-10.84 -38.892,-26.001 -52.954,-45.484c-14.063,-19.482 -24.61,-42.846 -31.641,-70.092c-7.031,-27.246 -10.547,-57.276 -10.547,-90.088Zm78.223,-4.834c0,53.613 9.009,93.823 27.026,120.63c18.018,26.806 44.751,40.21 80.201,40.21c15.82,-0 30.468,-3.955 43.945,-11.866c13.476,-7.91 25.268,-18.969 35.376,-33.178c10.107,-14.209 18.017,-30.982 23.73,-50.318c5.713,-19.336 8.57,-40.283 8.57,-62.841l-0,-7.911c-0,-22.851 -2.344,-44.018 -7.032,-63.501c-4.687,-19.482 -11.645,-36.328 -20.874,-50.537c-9.228,-14.209 -20.581,-25.268 -34.057,-33.178c-13.477,-7.911 -28.858,-11.866 -46.143,-11.866c-17.871,0 -33.691,3.809 -47.461,11.426c-13.769,7.617 -25.342,18.53 -34.717,32.739c-9.375,14.209 -16.479,31.421 -21.313,51.636c-4.834,20.215 -7.251,43.067 -7.251,68.555Z" style="fill:#ea580c;fill-rule:nonzero;"/><path d="M1381.8,263.33c7.6,0 14.3,2.2 20.1,6.6c5.8,4.4 9.7,10.2 11.7,17.4l120,390l-93.6,0l-84.6,-304.2c-1.6,-6.8 -3.2,-13.7 -4.8,-20.7c-1.6,-7 -3,-13.7 -4.2,-20.1l-16.2,0c-1.2,6.4 -2.5,13.1 -3.9,20.1c-1.4,7 -3.1,13.9 -5.1,20.7l-84.6,304.2l-94.2,0l120.6,-390c2,-7.2 5.9,-13 11.7,-17.4c5.8,-4.4 12.5,-6.6 20.1,-6.6l87,0Zm63.6,235.8l-0,69l-214.8,0l-0,-69l214.8,0Z" style="fill:#1f2937;fill-rule:nonzero;"/><path d="M1629.6,257.33l-0.6,325.2c-0,10 3,17.5 9,22.5c6,5 14.8,7.5 26.4,7.5l24,0l10.2,60c-4.8,2.4 -11.6,4.5 -20.4,6.3c-8.8,1.8 -17.8,3.2 -27,4.2c-9.2,1 -17,1.5 -23.4,1.5c-26.8,-0 -48,-7 -63.6,-21c-15.6,-14 -23.4,-33.6 -23.4,-58.8l-0,-347.4l88.8,0Z" style="fill:#1f2937;fill-rule:nonzero;"/><path d="M1902,373.73c37.2,-0 63.8,13.6 79.8,40.8c16,27.2 24,66.2 24,117c-0,39.6 -4.1,70.6 -12.3,93c-8.2,22.4 -20.6,38.1 -37.2,47.1c-16.6,9 -37.3,13.5 -62.1,13.5c-21.2,-0 -41.4,-3 -60.6,-9c-19.2,-6 -36.2,-16 -51,-30l6,-39.6c13.2,4 25.3,7.5 36.3,10.5c11,3 23.5,4.5 37.5,4.5c12.8,0 23,-2.2 30.6,-6.6c7.6,-4.4 13.1,-13.1 16.5,-26.1c3.4,-13 5.1,-31.9 5.1,-56.7c-0,-24.4 -1.6,-43.1 -4.8,-56.1c-3.2,-13 -8.4,-22 -15.6,-27c-7.2,-5 -16.6,-7.5 -28.2,-7.5c-12.8,0 -24.6,2.5 -35.4,7.5c-10.8,5 -23,12.1 -36.6,21.3l-11.4,-40.8c8,-10.8 18.3,-20.4 30.9,-28.8c12.6,-8.4 26.5,-15 41.7,-19.8c15.2,-4.8 30.8,-7.2 46.8,-7.2Zm-123,7.2l8.4,54l8.4,9l-0,192.6l-3,7.2c1.2,12 2.1,24.5 2.7,37.5c0.6,13 0.7,25.9 0.3,38.7l-0,71.4l-88.8,0l-0,-410.4l72,0Z" style="fill:#1f2937;fill-rule:nonzero;"/><path d="M2243.4,373.13c56,-0 84,27.4 84,82.2l-0,222l-89.4,0l-0,-194.4c-0,-13.2 -2.3,-22.3 -6.9,-27.3c-4.6,-5 -12.7,-7.5 -24.3,-7.5c-12.8,0 -26,2.4 -39.6,7.2c-13.6,4.8 -30.4,12.6 -50.4,23.4l-7.8,-46.2c22,-19.2 44.4,-33.9 67.2,-44.1c22.8,-10.2 45.2,-15.3 67.2,-15.3Zm-117.6,-115.8l0.6,102.6c-0,15.6 -0.9,30.4 -2.7,44.4c-1.8,14 -3.9,25.8 -6.3,35.4l8.4,7.8l-0,229.8l-88.8,0l-0,-420l88.8,0Z" style="fill:#1f2937;fill-rule:nonzero;"/><path d="M2524.2,373.13c24.8,-0 45.8,3.3 63,9.9c17.2,6.6 30.3,17.8 39.3,33.6c9,15.8 13.5,37.5 13.5,65.1l-0,195.6l-70.8,-0l-12.6,-64.2l-6,-9l-0,-123c-0,-14 -3.3,-24.2 -9.9,-30.6c-6.6,-6.4 -19.1,-9.6 -37.5,-9.6c-15.2,0 -34.2,0.5 -57,1.5c-22.8,1 -46.2,2.3 -70.2,3.9l-8.4,-58.8c14.4,-2.8 31,-5.2 49.8,-7.2c18.8,-2 37.6,-3.7 56.4,-5.1c18.8,-1.4 35.6,-2.1 50.4,-2.1Zm79.2,121.8l-0.6,49.8l-132,0.6c-10.8,0 -18.5,2.6 -23.1,7.8c-4.6,5.2 -6.9,12.2 -6.9,21l-0,14.4c-0,10 2.8,17.7 8.4,23.1c5.6,5.4 14.6,8.1 27,8.1c10.4,0 21.7,-2.2 33.9,-6.6c12.2,-4.4 24.3,-10.6 36.3,-18.6c12,-8 22.6,-17.4 31.8,-28.2l-0,38.4c-3.6,6 -8.9,13.5 -15.9,22.5c-7,9 -15.9,17.8 -26.7,26.4c-10.8,8.6 -23.4,15.9 -37.8,21.9c-14.4,6 -30.8,9 -49.2,9c-18,-0 -34.2,-3.2 -48.6,-9.6c-14.4,-6.4 -25.8,-15.8 -34.2,-28.2c-8.4,-12.4 -12.6,-27.8 -12.6,-46.2l-0,-30.6c-0,-23.6 8,-42 24,-55.2c16,-13.2 38,-19.8 66,-19.8l160.2,0Z" style="fill:#1f2937;fill-rule:nonzero;"/><path d="M2847,256.13c19.6,0 36.3,0.5 50.1,1.5c13.8,1 26.5,2.5 38.1,4.5c11.6,2 23.6,4.8 36,8.4l-7.2,67.2c-13.2,-0.8 -25.3,-1.4 -36.3,-1.8c-11,-0.4 -22.8,-0.7 -35.4,-0.9c-12.6,-0.2 -27.7,-0.3 -45.3,-0.3c-20.4,0 -36.3,4 -47.7,12c-11.4,8 -19.5,21.9 -24.3,41.7c-4.8,19.8 -7.2,47.1 -7.2,81.9c-0,34.8 2.4,62.1 7.2,81.9c4.8,19.8 12.9,33.7 24.3,41.7c11.4,8 27.3,12 47.7,12c27.6,0 50.8,-0.4 69.6,-1.2c18.8,-0.8 37.4,-2.2 55.8,-4.2l7.8,67.2c-19.2,6 -38.8,10.3 -58.8,12.9c-20,2.6 -44.8,3.9 -74.4,3.9c-42.8,-0 -77.1,-6.9 -102.9,-20.7c-25.8,-13.8 -44.4,-36.3 -55.8,-67.5c-11.4,-31.2 -17.1,-73.2 -17.1,-126c-0,-52.8 5.7,-94.8 17.1,-126c11.4,-31.2 30,-53.7 55.8,-67.5c25.8,-13.8 60.1,-20.7 102.9,-20.7Z" style="fill:#1f2937;fill-rule:nonzero;"/><path d="M3091.8,257.33l-0.6,325.2c-0,10 3,17.5 9,22.5c6,5 14.8,7.5 26.4,7.5l24,0l10.2,60c-4.8,2.4 -11.6,4.5 -20.4,6.3c-8.8,1.8 -17.8,3.2 -27,4.2c-9.2,1 -17,1.5 -23.4,1.5c-26.8,-0 -48,-7 -63.6,-21c-15.6,-14 -23.4,-33.6 -23.4,-58.8l-0,-347.4l88.8,0Z" style="fill:#1f2937;fill-rule:nonzero;"/><path d="M3256.2,380.93l-0,195c-0,12.4 2.7,21.2 8.1,26.4c5.4,5.2 14.1,7.8 26.1,7.8c12.4,-0 24.7,-2.3 36.9,-6.9c12.2,-4.6 27.3,-11.9 45.3,-21.9l7.2,48.6c-21.6,18.8 -42.8,32.8 -63.6,42c-20.8,9.2 -42.2,13.8 -64.2,13.8c-56.4,-0 -84.6,-27.6 -84.6,-82.8l-0,-222l88.8,-0Zm196.2,-0l-0,296.4l-70.2,-0l-10.2,-58.2l-8.4,-8.4l-0,-229.8l88.8,-0Z" style="fill:#1f2937;fill-rule:nonzero;"/><path d="M3681.6,373.13c39.2,-0 67.3,11.9 84.3,35.7c17,23.8 25.5,63.1 25.5,117.9c-0,22.8 -2.1,43.8 -6.3,63c-4.2,19.2 -11.6,35.9 -22.2,50.1c-10.6,14.2 -25.3,25.2 -44.1,33c-18.8,7.8 -43.2,11.7 -73.2,11.7c-10.4,-0 -22.4,-0.5 -36,-1.5c-13.6,-1 -27.5,-2.4 -41.7,-4.2c-14.2,-1.8 -27.7,-4.2 -40.5,-7.2c-12.8,-3 -23.8,-6.5 -33,-10.5l70.8,-51c7.6,2.4 16,4.5 25.2,6.3c9.2,1.8 18.6,3 28.2,3.6c9.6,0.6 18,0.7 25.2,0.3c13.6,-0.4 24.5,-3.3 32.7,-8.7c8.2,-5.4 14.1,-14.8 17.7,-28.2c3.6,-13.4 5.4,-32.1 5.4,-56.1c-0,-22 -1.5,-39.1 -4.5,-51.3c-3,-12.2 -8.4,-20.8 -16.2,-25.8c-7.8,-5 -18.7,-7.5 -32.7,-7.5c-13.2,0 -25.2,2.8 -36,8.4c-10.8,5.6 -22.8,13 -36,22.2l-6.6,-42c10.4,-11.2 21.6,-21.2 33.6,-30c12,-8.8 24.8,-15.7 38.4,-20.7c13.6,-5 27.6,-7.5 42,-7.5Zm-98.4,-115.8l0.6,96c-0,13.6 -0.7,26.7 -2.1,39.3c-1.4,12.6 -3.9,24.9 -7.5,36.9l8.4,7.8l0.6,228l-88.8,-4.2l-0,-403.8l88.8,0Z" style="fill:#1f2937;fill-rule:nonzero;"/><path d="M3834.72,424.36c6.763,0 11.485,1.341 14.167,4.023c2.682,2.682 4.023,7.404 4.023,14.167l-0,16.79c-0,6.763 -1.341,11.485 -4.023,14.167c-2.682,2.682 -7.404,4.023 -14.167,4.023l-13.292,0c-6.763,0 -11.485,-1.341 -14.167,-4.023c-2.682,-2.682 -4.023,-7.404 -4.023,-14.167l0,-16.79c0,-6.763 1.341,-11.485 4.023,-14.167c2.682,-2.682 7.404,-4.023 14.167,-4.023l13.292,0Z" style="fill:#1f2937;fill-rule:nonzero;"/><path d="M4050.33,236.168l-65.762,226.67c-1.166,4.198 -3.44,7.696 -6.821,10.494c-3.382,2.799 -7.404,4.198 -12.068,4.198l-48.972,-0c-4.897,-0 -9.037,-1.399 -12.418,-4.198c-3.382,-2.798 -5.539,-6.296 -6.471,-10.494l-66.113,-226.67l55.269,0l44.075,174.2c0.932,4.431 1.923,8.92 2.973,13.468c1.049,4.547 1.924,9.036 2.623,13.467l9.095,-0c0.7,-4.431 1.574,-8.978 2.624,-13.642c1.049,-4.664 2.157,-9.212 3.323,-13.642l43.725,-173.851l54.918,0Z" style="fill:#ea580c;fill-rule:nonzero;"/><rect x="4060.13" y="236.168" width="53.17" height="241.362" style="fill:#ea580c;fill-rule:nonzero;"/><path d="M4237.13,232.67c22.62,-0 40.343,2.332 53.169,6.996c12.826,4.664 21.979,12.709 27.459,24.136c5.481,11.427 8.221,27.401 8.221,47.923c-0,20.521 -2.624,36.496 -7.871,47.922c-5.247,11.427 -13.817,19.414 -25.71,23.962c-11.893,4.547 -27.984,6.821 -48.272,6.821c-10.728,-0 -21.222,-0.467 -31.482,-1.399c-10.261,-0.933 -19.822,-2.099 -28.684,-3.498c-8.862,-1.4 -16.441,-2.857 -22.737,-4.373c-6.296,-1.516 -10.611,-2.973 -12.943,-4.372l1.05,-26.585l86.75,-0c9.328,-0.233 16.616,-1.399 21.863,-3.498c5.247,-2.099 8.978,-5.947 11.193,-11.544c2.216,-5.596 3.323,-13.409 3.323,-23.436c0,-10.261 -1.107,-18.19 -3.323,-23.787c-2.215,-5.596 -5.946,-9.503 -11.193,-11.718c-5.247,-2.215 -12.535,-3.323 -21.863,-3.323c-21.454,-0 -39.877,0.117 -55.268,0.35c-15.391,0.233 -25.769,0.699 -31.132,1.399l-5.247,-38.478c9.794,-1.166 19.005,-1.982 27.634,-2.449c8.628,-0.466 18.014,-0.758 28.159,-0.874c10.144,-0.117 22.445,-0.175 36.904,-0.175Zm-39.178,3.498l-0,241.362l-53.519,-0l-0,-241.362l53.519,-0Z" style="fill:#ea580c;fill-rule:nonzero;"/></svg>